<?xml version="1.0" ?><!-- Uploaded to: SVG Repo, www.svgrepo.com, Generator: SVG Repo Mixer Tools -->
<svg width="800px" height="800px" viewBox="0 0 24 24" data-name="016_FOOD" id="_016_FOOD" xmlns="http://www.w3.org/2000/svg"><defs><style>.cls-1{fill:#333;}</style></defs><path class="cls-1" d="M6,21a1,1,0,0,1-.45-.11l-1.16-.58A6.1,6.1,0,0,1,1,14.83v-3a1,1,0,0,1,2,0v3a4.12,4.12,0,0,0,2,3.54V9.17A4.12,4.12,0,0,0,3,5.63V7.81a1,1,0,0,1-2,0V4a1,1,0,0,1,1.45-.89l1.16.58A6.1,6.1,0,0,1,7,9.17V20a1,1,0,0,1-.47.85A1,1,0,0,1,6,21Z"/><path class="cls-1" d="M14,21a1,1,0,0,1-.45-.11l-1.16-.58A6.1,6.1,0,0,1,9,14.83V4a1,1,0,0,1,1.45-.89l1.16.58A6.1,6.1,0,0,1,15,9.17V20a1,1,0,0,1-.47.85A1,1,0,0,1,14,21ZM11,5.63v9.2a4.12,4.12,0,0,0,2,3.54V9.17A4.12,4.12,0,0,0,11,5.63Z"/><path class="cls-1" d="M22,21a1,1,0,0,1-.45-.11l-1.16-.58A6.1,6.1,0,0,1,17,14.83V4a1,1,0,0,1,1.45-.89l1.16.58A6.1,6.1,0,0,1,23,9.17v4.21a1,1,0,1,1-2,0V9.17a4.12,4.12,0,0,0-2-3.54v9.2a4.12,4.12,0,0,0,2,3.54v-1a1,1,0,1,1,2,0V20a1,1,0,0,1-.47.85A1,1,0,0,1,22,21Z"/></svg>